:version 1.10
:name ASF
:units
  mass 1
  length 1
  angle deg
:documentation
  ASF file generated by Kaydara
:root
  axis xyz
  order  tx ty tz rx ry rz
  position 0 0 0
  orientation 0 0 0
:bonedata
  begin
    id 1
    name lfemurDummy
    direction 0.61522 -0.761478 0.204097
    length 5.68318
    axis 0 -0 0 xyz
  end
  begin
    id 2
    name lfemur
    direction 0.34202 -0.939693 -5.84747e-008
    length 16.9147
    axis 0 -0 20 xyz
    dof rx ry rz
    limits( -inf , inf )
( -inf , inf )
( -inf , inf )

  end
  begin
    id 3
    name ltibia
    direction 0.34202 -0.939693 1.20839e-009
    length 18.0532
    axis 0 -0 20 xyz
    dof rz ry rx
    limits( -inf , inf )
( -inf , inf )
( -inf , inf )

  end
  begin
    id 4
    name lfoot
    direction 0.0841971 -0.23133 0.969225
    length 5.23822
    axis -90 7.62852e-016 20 xyz
    dof ry rx rz
    limits( -inf , inf )
( -inf , inf )
( -inf , inf )

  end
  begin
    id 5
    name ltoes
    direction 0 0 0
    length 0
    axis 0 0 0 xyz
    dof rz ry rx
    limits( -inf , inf )
( -inf , inf )
( -inf , inf )

  end
  begin
    id 6
    name rfemurDummy
    direction -0.625247 -0.75382 0.202044
    length 5.74091
    axis 0 -0 0 xyz
  end
  begin
    id 7
    name rfemur
    direction -0.34202 -0.939693 -1.47013e-008
    length 16.4922
    axis 0 -0 -20 xyz
    dof rx ry rz
    limits( -inf , inf )
( -inf , inf )
( -inf , inf )

  end
  begin
    id 8
    name rtibia
    direction -0.34202 -0.939693 -7.74345e-010
    length 18.2421
    axis 0 -0 -20 xyz
    dof rz ry rx
    limits( -inf , inf )
( -inf , inf )
( -inf , inf )

  end
  begin
    id 9
    name rfoot
    direction -0.124331 -0.341598 0.931586
    length 5.45787
    axis -90 -7.62852e-016 -20 xyz
    dof ry rx rz
    limits( -inf , inf )
( -inf , inf )
( -inf , inf )

  end
  begin
    id 10
    name rtoes
    direction 0 0 0
    length 0
    axis 0 0 0 xyz
    dof rz ry rx
    limits( -inf , inf )
( -inf , inf )
( -inf , inf )

  end
  begin
    id 11
    name lowerbackDummy
    direction 0 0 0
    length 0
    axis 0 -0 0 xyz
  end
  begin
    id 12
    name lowerback
    direction -0.0218484 0.994884 -0.0986304
    length 4.45607
    axis 0 -0 0 xyz
    dof rx ry rz
    limits( -inf , inf )
( -inf , inf )
( -inf , inf )

  end
  begin
    id 13
    name upperback
    direction -0.00973057 0.999717 -0.0217111
    length 4.47449
    axis 0 -0 0 xyz
    dof rx ry rz
    limits( -inf , inf )
( -inf , inf )
( -inf , inf )

  end
  begin
    id 14
    name thorax
    direction -0.000928171 0.999699 0.0245198
    length 4.50973
    axis 0 -0 0 xyz
    dof rx ry rz
    limits( -inf , inf )
( -inf , inf )
( -inf , inf )

  end
  begin
    id 15
    name rclavicle
    direction -0.9009 0.425937 -0.0834055
    length 7.28587
    axis 0 -0 0 xyz
    dof rx ry rz
    limits( -inf , inf )
( -inf , inf )
( -inf , inf )

  end
  begin
    id 16
    name rhumerus
    direction -1 -2.23604e-007 -1.42637e-007
    length 13.5704
    axis 180 30 90 xyz
    dof rx ry rz
    limits( -inf , inf )
( -inf , inf )
( -inf , inf )

  end
  begin
    id 17
    name rradius
    direction -1 5.68281e-008 -4.4952e-007
    length 8.06782
    axis 180 30 90 xyz
    dof rz ry rx
    limits( -inf , inf )
( -inf , inf )
( -inf , inf )

  end
  begin
    id 18
    name rwrist
    direction -1 1.51393e-007 1.38143e-007
    length 4.03391
    axis -90 -90 0 xyz
    dof rz rx ry
    limits( -inf , inf )
( -inf , inf )
( -inf , inf )

  end
  begin
    id 19
    name rthumb
    direction 0 0 0
    length 0
    axis 0 0 0 xyz
    dof ry rx rz
    limits( -inf , inf )
( -inf , inf )
( -inf , inf )

  end
  begin
    id 20
    name rhand
    direction -1 -3.34077e-007 -5.59631e-007
    length 1.29744
    axis -90 -90 0 xyz
    dof ry rx rz
    limits( -inf , inf )
( -inf , inf )
( -inf , inf )

  end
  begin
    id 21
    name rfingers
    direction 0 0 0
    length 0
    axis 0 0 0 xyz
    dof rz ry rx
    limits( -inf , inf )
( -inf , inf )
( -inf , inf )

  end
  begin
    id 22
    name lclavicle
    direction 0.940017 0.332249 -0.0773232
    length 8.29589
    axis 0 -0 0 xyz
    dof rx ry rz
    limits( -inf , inf )
( -inf , inf )
( -inf , inf )

  end
  begin
    id 23
    name lhumerus
    direction 1 7.41158e-008 -1.44768e-008
    length 12.0042
    axis 180 -30 -90 xyz
    dof rx ry rz
    limits( -inf , inf )
( -inf , inf )
( -inf , inf )

  end
  begin
    id 24
    name lradius
    direction 1 -1.32972e-007 3.10821e-007
    length 8.1902
    axis 180 -30 -90 xyz
    dof rz ry rx
    limits( -inf , inf )
( -inf , inf )
( -inf , inf )

  end
  begin
    id 25
    name lwrist
    direction 1 3.08957e-007 4.01394e-007
    length 4.09509
    axis -90 90 0 xyz
    dof rz rx ry
    limits( -inf , inf )
( -inf , inf )
( -inf , inf )

  end
  begin
    id 26
    name lthumb
    direction 0 0 0
    length 0
    axis 0 0 0 xyz
    dof ry rx rz
    limits( -inf , inf )
( -inf , inf )
( -inf , inf )

  end
  begin
    id 27
    name lhand
    direction 1 -1.64125e-007 -6.99514e-007
    length 1.37229
    axis -90 90 0 xyz
    dof ry rx rz
    limits( -inf , inf )
( -inf , inf )
( -inf , inf )

  end
  begin
    id 28
    name lfingers
    direction 0 0 0
    length 0
    axis 0 0 0 xyz
    dof rz ry rx
    limits( -inf , inf )
( -inf , inf )
( -inf , inf )

  end
  begin
    id 29
    name lowerneck
    direction -0.030798 0.998024 0.0547665
    length 3.93918
    axis 0 -0 0 xyz
    dof rx ry rz
    limits( -inf , inf )
( -inf , inf )
( -inf , inf )

  end
  begin
    id 30
    name upperneck
    direction 0.0531588 0.996611 -0.0627736
    length 3.95491
    axis 0 -0 0 xyz
    dof rx ry rz
    limits( -inf , inf )
( -inf , inf )
( -inf , inf )

  end
  begin
    id 31
    name head
    direction 0 0 0
    length 0
    axis 0 0 0 xyz
    dof rx ry rz
    limits( -inf , inf )
( -inf , inf )
( -inf , inf )

  end
:hierarchy
  begin
    root lfemurDummy rfemurDummy lowerbackDummy
    lfemurDummy lfemur
    lfemur ltibia
    ltibia lfoot
    lfoot ltoes
    rfemurDummy rfemur
    rfemur rtibia
    rtibia rfoot
    rfoot rtoes
    lowerbackDummy lowerback
    lowerback upperback
    upperback thorax
    thorax rclavicle lclavicle lowerneck
    rclavicle rhumerus
    rhumerus rradius
    rradius rwrist
    rwrist rthumb rhand
    rhand rfingers
    lclavicle lhumerus
    lhumerus lradius
    lradius lwrist
    lwrist lthumb lhand
    lhand lfingers
    lowerneck upperneck
    upperneck head
  end

:SAMPLES-PER-SECOND 30
:FULLY-SPECIFIED
:DEGREES
1
root  9.540910796 37.2226655 -0.4175866683 -7.00100708 -39.37600708 4.647994995
lowerback  13.35039997 3.027019978 -2.704119921
upperback  4.253139973 3.547260046 -0.560814023
thorax  -3.124419928 1.726819992 0.3760519922
lowerneck  -7.473549843 2.117160082 -5.466829777
upperneck  12.23029995 2.326780081 9.225379944
head  4.693920135 1.453040004 3.909199953
lclavicle  0 -9.442270133e-015 7.951389973e-016
lhumerus  -14.44820023 -18.99419975 89.00910187
lradius  2.397247255e-031 -2.592691581e-031 132.7570038
lwrist  0 -0 6.195940018
lhand  -1.496451383e-031 -27.76390076 20.11240005
lfingers  90 7.125020027 -90
lthumb  89.89689403 5.08795885 91.16245106
rclavicle  0 -9.442270133e-015 7.951389973e-016
rhumerus  3.960680008 28.62059975 -78.29759979
rradius  -5.332738251e-032 3.490625025e-031 98.68609619
rwrist  7.062250077e-031 3.531125038e-031 -46.4029007
rhand  -7.920061211e-032 -33.2840004 9.303460121
rfingers  -90 -7.125020027 -90
rthumb  -92.93752616 -24.25625642 -97.11982154
rfemur  -10.27460003 9.068699837 4.372809887
rtibia  -0 0 63.3404007
rfoot  -0 -25.07460022 -12.61419964
rtoes  5.373923086 19.29304026 -105.8922705
lfemur  -24.5814991 4.113500118 -3.823220015
ltibia  -0 0 59.49570084
lfoot  4.5088853e-032 -11.78100014 -4.808129787
ltoes  -4.250644065 -19.5611806 -102.515957
2
root  9.587000299 37.03288882 -0.3868044361 -7.031997681 -39.94900513 5.048995972
lowerback  13.12709999 3.128509998 -2.443909883
upperback  3.962110043 3.723390102 -0.5937060118
thorax  -3.29531002 1.820029974 0.1699469984
lowerneck  -7.380290031 2.169329882 -5.439229965
upperneck  11.88759995 2.407900095 9.260930061
head  4.56731987 1.492089987 3.910739899
lclavicle  0 -9.442270133e-015 7.951389973e-016
lhumerus  -15.14150047 -18.72470093 89.19560242
lradius  2.415244226e-031 -2.575934659e-031 133.1560059
lwrist  -7.062250077e-031 -3.531125038e-031 5.982450008
lhand  -1.496451383e-031 -27.76390076 20.11240005
lfingers  90 7.125020027 -90
lthumb  89.89689403 5.08795885 91.16245106
rclavicle  0 -9.442270133e-015 7.951389973e-016
rhumerus  3.560790062 28.38199997 -79.07830048
rradius  -5.46831377e-032 3.488526836e-031 98.90869904
rwrist  0 7.062250077e-031 -45.61949921
rhand  -7.920061211e-032 -33.2840004 9.303460121
rfingers  -90 -7.125020027 -90
rthumb  -92.93752616 -24.25625642 -97.11982154
rfemur  -9.288570404 9.843020439 4.263319969
rtibia  -0 0 61.48799896
rfoot  -0 -28.5734005 -13.16170025
rtoes  5.373923086 19.29304026 -105.8922705
lfemur  -24.82570076 4.884980202 -3.896130085
ltibia  -0 0 60.23680115
lfoot  4.509338872e-032 -11.80860043 -5.767459869
ltoes  -4.250644065 -19.5611806 -102.515957
3
root  9.652111474 36.89155579 -0.3491044514 -7.136001587 -40.46400452 5.63999939
lowerback  12.84819984 3.189480066 -2.195159912
upperback  3.772389889 3.844820023 -0.6465110183
thorax  -3.325880051 1.883399963 -0.03444270045
lowerneck  -7.24559021 2.245650053 -5.473370075
upperneck  11.34140015 2.552639961 9.202440262
head  4.367929935 1.552010059 3.8910501
lclavicle  0 -9.442270133e-015 7.951389973e-016
lhumerus  -15.48069954 -18.36969948 89.15280151
lradius  2.437853719e-031 -2.554547569e-031 133.6609955
lwrist  -7.062250077e-031 -0 5.992390156
lhand  -1.496451383e-031 -27.76390076 20.11240005
lfingers  90 7.125020027 -90
lthumb  89.89689403 5.08795885 91.16245106
rclavicle  0 -9.442270133e-015 7.951389973e-016
rhumerus  3.510449886 28.48019981 -79.21240234
rradius  -5.622728305e-032 3.486071328e-031 99.16239929
rwrist  7.062250077e-031 7.062250077e-031 -45.42240143
rhand  -7.920061211e-032 -33.2840004 9.303460121
rfingers  -90 -7.125020027 -90
rthumb  -92.93752616 -24.25625642 -97.11982154
rfemur  -8.565910339 10.30860043 3.872179985
rtibia  -0 0 59.73049927
rfoot  -0 -31.6529007 -13.82919979
rtoes  5.373923086 19.29304026 -105.8922705
lfemur  -25.35960007 5.66903019 -4.186830044
ltibia  -0 0 61.17470169
lfoot  -0 -11.42650032 -7.290699959
ltoes  -4.250644065 -19.5611806 -102.515957
4
root  9.745178072 36.8442235 -0.3186200078 -6.966003418 -40.99899292 5.865005493
lowerback  12.88189983 3.20449996 -1.674139977
upperback  3.564699888 3.935120106 -0.563215971
thorax  -3.53482008 1.92948997 -0.2622489929
lowerneck  -7.289130211 2.334569931 -5.361030102
upperneck  10.87880039 2.728049994 8.882160187
head  4.229279995 1.623209953 3.772170067
lclavicle  0 -9.442270133e-015 7.951389973e-016
lhumerus  -15.53530025 -17.8878994 89.02149963
lradius  2.455407016e-031 -2.537680127e-031 134.0559998
lwrist  -7.062250077e-031 -1.765562519e-031 5.995840073
lhand  -1.496451383e-031 -27.76390076 20.11240005
lfingers  90 7.125020027 -90
lthumb  89.89689403 5.08795885 91.16245106
rclavicle  0 -9.442270133e-015 7.951389973e-016
rhumerus  3.805900097 28.89629936 -78.82990265
rradius  -5.784148128e-032 3.483429394e-031 99.42780304
rwrist  7.062250077e-031 3.531125038e-031 -45.69850159
rhand  -7.920061211e-032 -33.2840004 9.303460121
rfingers  -90 -7.125020027 -90
rthumb  -92.93752616 -24.25625642 -97.11982154
rfemur  -8.268650055 10.62230015 3.700330019
rtibia  -0 0 58.3791008
rfoot  -0 -33.14609909 -13.56550026
rtoes  5.373923086 19.29304026 -105.8922705
lfemur  -26.18020058 6.530260086 -4.238359928
ltibia  -0 0 62.28730011
lfoot  -0 -10.62979984 -8.346839905
ltoes  -4.250644065 -19.5611806 -102.515957
5
root  9.896888883 36.76400072 -0.3171400057 -6.651000977 -41.66299438 5.901992798
lowerback  13.23289967 3.223069906 -0.9725210071
upperback  3.38609004 4.051149845 -0.4124119878
thorax  -3.877079964 1.983659983 -0.5426579714
lowerneck  -7.550879955 2.421999931 -5.159369946
upperneck  10.49030018 2.907779932 8.422679901
head  4.154389858 1.697739959 3.601910114
lclavicle  0 -9.442270133e-015 7.951389973e-016
lhumerus  -15.33710003 -17.37350082 88.83139801
lradius  2.469937922e-031 -2.52353932e-031 134.3849945
lwrist  -7.062250077e-031 -3.531125038e-031 5.851260185
lhand  -1.496451383e-031 -27.76390076 20.11240005
lfingers  90 7.125020027 -90
lthumb  89.89689403 5.08795885 91.16245106
rclavicle  0 -9.442270133e-015 7.951389973e-016
rhumerus  4.515789986 29.4904995 -78.17680359
rradius  -5.859217496e-032 3.482174571e-031 99.55130005
rwrist  0 5.296687558e-031 -45.85409927
rhand  -7.920061211e-032 -33.2840004 9.303460121
rfingers  -90 -7.125020027 -90
rthumb  -92.93752616 -24.25625642 -97.11982154
rfemur  -8.473790169 10.83300018 3.503599882
rtibia  -0 0 57.45489883
rfoot  -0 -34.21089935 -14.75230026
rtoes  5.373923086 19.29304026 -105.8922705
lfemur  -27.41230011 7.513000011 -4.130300045
ltibia  -0 0 63.68080139
lfoot  -0 -9.469200134 -8.524629593
ltoes  -4.250644065 -19.5611806 -102.515957
